<?xml version="1.0" encoding="UTF-8"?>
<!DOCTYPE svg PUBLIC "-//W3C//DTD SVG 1.1//EN" "http://www.w3.org/Graphics/SVG/1.1/DTD/svg11.dtd">
<svg xmlns="http://www.w3.org/2000/svg" version="1.1" width="512px" height="512px" style="shape-rendering:geometricPrecision; text-rendering:geometricPrecision; image-rendering:optimizeQuality; fill-rule:evenodd; clip-rule:evenodd" xmlns:xlink="http://www.w3.org/1999/xlink">
<g><path style="opacity:0.991" fill="#000000" d="M 233.5,-0.5 C 248.167,-0.5 262.833,-0.5 277.5,-0.5C 377.805,11.9821 449.305,63.9821 492,155.5C 502.297,180.687 508.797,206.687 511.5,233.5C 511.5,248.167 511.5,262.833 511.5,277.5C 499.018,377.805 447.018,449.305 355.5,492C 330.313,502.297 304.313,508.797 277.5,511.5C 262.833,511.5 248.167,511.5 233.5,511.5C 133.195,499.018 61.6947,447.018 19,355.5C 8.70332,330.313 2.20332,304.313 -0.5,277.5C -0.5,262.833 -0.5,248.167 -0.5,233.5C 11.9821,133.195 63.9821,61.6947 155.5,19C 180.687,8.70332 206.687,2.20332 233.5,-0.5 Z M 257.5,86.5 C 274.796,87.3853 285.962,96.052 291,112.5C 292.464,151.466 292.964,190.466 292.5,229.5C 331.873,229.03 371.207,229.53 410.5,231C 431.503,239.51 438.67,254.676 432,276.5C 426.967,285.608 419.467,291.775 409.5,295C 370.53,296.457 331.53,296.957 292.5,296.5C 292.957,335.53 292.457,374.53 291,413.5C 285.935,428.888 275.268,437.222 259,438.5C 243.061,437.53 232.394,429.53 227,414.5C 225.53,375.207 225.03,335.873 225.5,296.5C 186.47,296.957 147.47,296.457 108.5,295C 87.6493,287.462 79.8159,272.962 85,251.5C 89.3477,241.15 96.8477,234.317 107.5,231C 146.793,229.53 186.127,229.03 225.5,229.5C 225.03,190.127 225.53,150.793 227,111.5C 231.991,96.6615 242.158,88.3281 257.5,86.5 Z"/></g>
</svg>
