<svg width="220" height="48" viewBox="0 0 220 48" fill="none" xmlns="http://www.w3.org/2000/svg">
<path d="M0.5 0.5H92.8125H173.594H196.585L219.305 24L196.585 47.5H173.594H92.8125H0.5V0.5Z" fill="white" stroke="black"/>
<path d="M48.1193 22H46.5341C46.4403 21.544 46.2763 21.1435 46.0419 20.7983C45.8118 20.4531 45.5305 20.1634 45.1982 19.929C44.87 19.6903 44.5057 19.5114 44.1051 19.392C43.7045 19.2727 43.2869 19.2131 42.8523 19.2131C42.0597 19.2131 41.3416 19.4134 40.6982 19.8139C40.0589 20.2145 39.5497 20.8047 39.1705 21.5845C38.7955 22.3643 38.608 23.321 38.608 24.4545C38.608 25.5881 38.7955 26.5447 39.1705 27.3246C39.5497 28.1044 40.0589 28.6946 40.6982 29.0952C41.3416 29.4957 42.0597 29.696 42.8523 29.696C43.2869 29.696 43.7045 29.6364 44.1051 29.517C44.5057 29.3977 44.87 29.2209 45.1982 28.9865C45.5305 28.7479 45.8118 28.456 46.0419 28.1108C46.2763 27.7614 46.4403 27.3608 46.5341 26.9091H48.1193C48 27.5781 47.7827 28.1768 47.4673 28.7053C47.152 29.2337 46.7599 29.6832 46.2912 30.054C45.8224 30.4205 45.2962 30.6996 44.7124 30.8913C44.1328 31.0831 43.5128 31.179 42.8523 31.179C41.7358 31.179 40.7429 30.9062 39.8736 30.3608C39.0043 29.8153 38.3203 29.0398 37.8217 28.0341C37.3232 27.0284 37.0739 25.8352 37.0739 24.4545C37.0739 23.0739 37.3232 21.8807 37.8217 20.875C38.3203 19.8693 39.0043 19.0938 39.8736 18.5483C40.7429 18.0028 41.7358 17.7301 42.8523 17.7301C43.5128 17.7301 44.1328 17.826 44.7124 18.0178C45.2962 18.2095 45.8224 18.4908 46.2912 18.8615C46.7599 19.228 47.152 19.6754 47.4673 20.2038C47.7827 20.728 48 21.3267 48.1193 22ZM51.9849 25.0938V31H50.4764V17.9091H51.9849V22.7159H52.1127C52.3429 22.2088 52.688 21.8061 53.1483 21.5078C53.6127 21.2053 54.2306 21.054 55.002 21.054C55.671 21.054 56.2569 21.1882 56.7598 21.4567C57.2626 21.7209 57.6525 22.1278 57.9295 22.6776C58.2108 23.223 58.3514 23.9176 58.3514 24.7614V31H56.8429V24.8636C56.8429 24.0838 56.6404 23.4808 56.2356 23.0547C55.835 22.6243 55.2789 22.4091 54.5673 22.4091C54.073 22.4091 53.6298 22.5135 53.2377 22.7223C52.85 22.9311 52.5431 23.2358 52.3173 23.6364C52.0957 24.0369 51.9849 24.5227 51.9849 25.0938ZM65.0998 31.2045C64.2134 31.2045 63.4357 30.9936 62.7667 30.5717C62.1019 30.1499 61.582 29.5597 61.207 28.8011C60.8363 28.0426 60.6509 27.1562 60.6509 26.142C60.6509 25.1193 60.8363 24.2266 61.207 23.4638C61.582 22.701 62.1019 22.1087 62.7667 21.6868C63.4357 21.2649 64.2134 21.054 65.0998 21.054C65.9862 21.054 66.7617 21.2649 67.4265 21.6868C68.0955 22.1087 68.6154 22.701 68.9862 23.4638C69.3612 24.2266 69.5487 25.1193 69.5487 26.142C69.5487 27.1562 69.3612 28.0426 68.9862 28.8011C68.6154 29.5597 68.0955 30.1499 67.4265 30.5717C66.7617 30.9936 65.9862 31.2045 65.0998 31.2045ZM65.0998 29.8494C65.7731 29.8494 66.3271 29.6768 66.7617 29.3317C67.1964 28.9865 67.5181 28.5327 67.7269 27.9702C67.9357 27.4077 68.0401 26.7983 68.0401 26.142C68.0401 25.4858 67.9357 24.8743 67.7269 24.3075C67.5181 23.7408 67.1964 23.2827 66.7617 22.9332C66.3271 22.5838 65.7731 22.4091 65.0998 22.4091C64.4265 22.4091 63.8725 22.5838 63.4379 22.9332C63.0032 23.2827 62.6815 23.7408 62.4727 24.3075C62.2638 24.8743 62.1594 25.4858 62.1594 26.142C62.1594 26.7983 62.2638 27.4077 62.4727 27.9702C62.6815 28.5327 63.0032 28.9865 63.4379 29.3317C63.8725 29.6768 64.4265 29.8494 65.0998 29.8494ZM75.84 31.2045C74.9537 31.2045 74.176 30.9936 73.5069 30.5717C72.8422 30.1499 72.3223 29.5597 71.9473 28.8011C71.5765 28.0426 71.3912 27.1562 71.3912 26.142C71.3912 25.1193 71.5765 24.2266 71.9473 23.4638C72.3223 22.701 72.8422 22.1087 73.5069 21.6868C74.176 21.2649 74.9537 21.054 75.84 21.054C76.7264 21.054 77.502 21.2649 78.1667 21.6868C78.8358 22.1087 79.3556 22.701 79.7264 23.4638C80.1014 24.2266 80.2889 25.1193 80.2889 26.142C80.2889 27.1562 80.1014 28.0426 79.7264 28.8011C79.3556 29.5597 78.8358 30.1499 78.1667 30.5717C77.502 30.9936 76.7264 31.2045 75.84 31.2045ZM75.84 29.8494C76.5133 29.8494 77.0673 29.6768 77.502 29.3317C77.9366 28.9865 78.2583 28.5327 78.4672 27.9702C78.676 27.4077 78.7804 26.7983 78.7804 26.142C78.7804 25.4858 78.676 24.8743 78.4672 24.3075C78.2583 23.7408 77.9366 23.2827 77.502 22.9332C77.0673 22.5838 76.5133 22.4091 75.84 22.4091C75.1667 22.4091 74.6127 22.5838 74.1781 22.9332C73.7434 23.2827 73.4217 23.7408 73.2129 24.3075C73.0041 24.8743 72.8997 25.4858 72.8997 26.142C72.8997 26.7983 73.0041 27.4077 73.2129 27.9702C73.4217 28.5327 73.7434 28.9865 74.1781 29.3317C74.6127 29.6768 75.1667 29.8494 75.84 29.8494ZM89.5462 23.3807L88.1911 23.7642C88.1058 23.5384 87.9801 23.3189 87.8139 23.1058C87.652 22.8885 87.4304 22.7095 87.1491 22.5689C86.8679 22.4283 86.5078 22.358 86.0689 22.358C85.468 22.358 84.9673 22.4964 84.5668 22.7734C84.1705 23.0462 83.9723 23.3935 83.9723 23.8153C83.9723 24.1903 84.1087 24.4865 84.3814 24.7038C84.6541 24.9212 85.0803 25.1023 85.6598 25.2472L87.1172 25.6051C87.995 25.8182 88.6491 26.1442 89.0795 26.5831C89.5099 27.0178 89.7251 27.5781 89.7251 28.2642C89.7251 28.8267 89.5632 29.3295 89.2393 29.7727C88.9197 30.2159 88.4723 30.5653 87.897 30.821C87.3217 31.0767 86.6527 31.2045 85.8899 31.2045C84.8885 31.2045 84.0597 30.9872 83.4034 30.5526C82.7472 30.1179 82.3317 29.483 82.157 28.6477L83.5888 28.2898C83.7251 28.8182 83.983 29.2145 84.3622 29.4787C84.7457 29.7429 85.2464 29.875 85.8643 29.875C86.5675 29.875 87.1257 29.7259 87.5391 29.4276C87.9567 29.125 88.1655 28.7628 88.1655 28.3409C88.1655 28 88.0462 27.7145 87.8075 27.4844C87.5689 27.25 87.2024 27.0753 86.7081 26.9602L85.0717 26.5767C84.1726 26.3636 83.5121 26.0334 83.0902 25.5859C82.6726 25.1342 82.4638 24.5696 82.4638 23.892C82.4638 23.3381 82.6193 22.848 82.9304 22.4219C83.2457 21.9957 83.674 21.6612 84.2152 21.4183C84.7607 21.1754 85.3786 21.054 86.0689 21.054C87.0405 21.054 87.8033 21.267 88.3572 21.6932C88.9155 22.1193 89.3118 22.6818 89.5462 23.3807ZM96.1124 31.2045C95.1664 31.2045 94.3503 30.9957 93.6642 30.5781C92.9824 30.1562 92.4561 29.5682 92.0854 28.8139C91.7189 28.0554 91.5357 27.1733 91.5357 26.1676C91.5357 25.1619 91.7189 24.2756 92.0854 23.5085C92.4561 22.7372 92.9718 22.1364 93.6323 21.706C94.2971 21.2713 95.0726 21.054 95.959 21.054C96.4703 21.054 96.9753 21.1392 97.4739 21.3097C97.9725 21.4801 98.4263 21.7571 98.8354 22.1406C99.2445 22.5199 99.5705 23.0227 99.8134 23.6491C100.056 24.2756 100.178 25.0469 100.178 25.9631V26.6023H92.6096V25.2983H98.6436C98.6436 24.7443 98.5328 24.25 98.3113 23.8153C98.0939 23.3807 97.7828 23.0376 97.378 22.7862C96.9775 22.5348 96.5044 22.4091 95.959 22.4091C95.3581 22.4091 94.8382 22.5582 94.3993 22.8565C93.9647 23.1506 93.6301 23.5341 93.3958 24.0071C93.1614 24.4801 93.0442 24.9872 93.0442 25.5284V26.3977C93.0442 27.1392 93.1721 27.7678 93.4277 28.2834C93.6877 28.7947 94.0478 29.1847 94.508 29.4531C94.9682 29.7173 95.503 29.8494 96.1124 29.8494C96.5087 29.8494 96.8667 29.794 97.1863 29.6832C97.5101 29.5682 97.7892 29.3977 98.0236 29.1719C98.258 28.9418 98.4391 28.6562 98.5669 28.3153L100.024 28.7244C99.8709 29.2188 99.6131 29.6534 99.2509 30.0284C98.8887 30.3991 98.4412 30.6889 97.9086 30.8977C97.3759 31.1023 96.7772 31.2045 96.1124 31.2045ZM111.524 31.2045C110.603 31.2045 109.811 30.9872 109.146 30.5526C108.481 30.1179 107.97 29.5192 107.612 28.7564C107.254 27.9936 107.075 27.1222 107.075 26.142C107.075 25.1449 107.258 24.2649 107.624 23.5021C107.995 22.7351 108.511 22.1364 109.171 21.706C109.836 21.2713 110.612 21.054 111.498 21.054C112.188 21.054 112.811 21.1818 113.365 21.4375C113.919 21.6932 114.372 22.0511 114.726 22.5114C115.08 22.9716 115.299 23.5085 115.384 24.1222H113.876C113.761 23.6747 113.505 23.2784 113.109 22.9332C112.717 22.5838 112.188 22.4091 111.524 22.4091C110.936 22.4091 110.42 22.5625 109.977 22.8693C109.538 23.1719 109.195 23.6001 108.948 24.1541C108.705 24.7038 108.583 25.3494 108.583 26.0909C108.583 26.8494 108.703 27.5099 108.941 28.0724C109.184 28.6349 109.525 29.0717 109.964 29.3828C110.407 29.6939 110.927 29.8494 111.524 29.8494C111.916 29.8494 112.271 29.7812 112.591 29.6449C112.911 29.5085 113.181 29.3125 113.403 29.0568C113.624 28.8011 113.782 28.4943 113.876 28.1364H115.384C115.299 28.7159 115.088 29.2379 114.752 29.7024C114.419 30.1626 113.978 30.5291 113.428 30.8018C112.883 31.0703 112.248 31.2045 111.524 31.2045ZM120.479 31.2301C119.857 31.2301 119.292 31.1129 118.785 30.8786C118.278 30.6399 117.875 30.2969 117.577 29.8494C117.279 29.3977 117.129 28.8523 117.129 28.2131C117.129 27.6506 117.24 27.1946 117.462 26.8452C117.683 26.4915 117.98 26.2145 118.35 26.0142C118.721 25.8139 119.13 25.6648 119.578 25.5668C120.029 25.4645 120.483 25.3835 120.939 25.3239C121.536 25.2472 122.019 25.1896 122.39 25.1513C122.765 25.1087 123.038 25.0384 123.208 24.9403C123.383 24.8423 123.47 24.6719 123.47 24.429V24.3778C123.47 23.7472 123.298 23.2571 122.953 22.9077C122.612 22.5582 122.094 22.3835 121.399 22.3835C120.679 22.3835 120.115 22.5412 119.705 22.8565C119.296 23.1719 119.009 23.5085 118.843 23.8665L117.411 23.3551C117.666 22.7585 118.007 22.294 118.433 21.9616C118.864 21.625 119.333 21.3906 119.84 21.2585C120.351 21.1222 120.854 21.054 121.348 21.054C121.664 21.054 122.026 21.0923 122.435 21.169C122.848 21.2415 123.247 21.3928 123.63 21.6229C124.018 21.853 124.34 22.2003 124.595 22.6648C124.851 23.1293 124.979 23.7514 124.979 24.5312V31H123.47V29.6705H123.394C123.291 29.8835 123.121 30.1115 122.882 30.3544C122.644 30.5973 122.326 30.804 121.93 30.9744C121.534 31.1449 121.05 31.2301 120.479 31.2301ZM120.709 29.875C121.306 29.875 121.808 29.7578 122.218 29.5234C122.631 29.2891 122.942 28.9865 123.151 28.6158C123.364 28.245 123.47 27.8551 123.47 27.446V26.0653C123.406 26.142 123.266 26.2124 123.048 26.2763C122.835 26.3359 122.588 26.3892 122.307 26.4361C122.03 26.4787 121.759 26.517 121.495 26.5511C121.235 26.581 121.024 26.6065 120.862 26.6278C120.47 26.679 120.104 26.7621 119.763 26.8771C119.426 26.9879 119.154 27.1562 118.945 27.3821C118.74 27.6037 118.638 27.9062 118.638 28.2898C118.638 28.8139 118.832 29.2102 119.22 29.4787C119.612 29.7429 120.108 29.875 120.709 29.875ZM132.002 21.1818V22.4602H126.914V21.1818H132.002ZM128.397 18.8295H129.906V28.1875C129.906 28.6136 129.967 28.9332 130.091 29.1463C130.219 29.3551 130.381 29.4957 130.577 29.5682C130.777 29.6364 130.988 29.6705 131.21 29.6705C131.376 29.6705 131.512 29.6619 131.619 29.6449C131.725 29.6236 131.81 29.6065 131.874 29.5938L132.181 30.9489C132.079 30.9872 131.936 31.0256 131.753 31.0639C131.57 31.1065 131.337 31.1278 131.056 31.1278C130.63 31.1278 130.212 31.0362 129.803 30.853C129.398 30.6697 129.062 30.3906 128.793 30.0156C128.529 29.6406 128.397 29.1676 128.397 28.5966V18.8295ZM138.282 31.2045C137.336 31.2045 136.52 30.9957 135.834 30.5781C135.152 30.1562 134.626 29.5682 134.255 28.8139C133.889 28.0554 133.706 27.1733 133.706 26.1676C133.706 25.1619 133.889 24.2756 134.255 23.5085C134.626 22.7372 135.142 22.1364 135.802 21.706C136.467 21.2713 137.243 21.054 138.129 21.054C138.64 21.054 139.145 21.1392 139.644 21.3097C140.142 21.4801 140.596 21.7571 141.005 22.1406C141.414 22.5199 141.74 23.0227 141.983 23.6491C142.226 24.2756 142.348 25.0469 142.348 25.9631V26.6023H134.779V25.2983H140.814C140.814 24.7443 140.703 24.25 140.481 23.8153C140.264 23.3807 139.953 23.0376 139.548 22.7862C139.147 22.5348 138.674 22.4091 138.129 22.4091C137.528 22.4091 137.008 22.5582 136.569 22.8565C136.135 23.1506 135.8 23.5341 135.566 24.0071C135.331 24.4801 135.214 24.9872 135.214 25.5284V26.3977C135.214 27.1392 135.342 27.7678 135.598 28.2834C135.858 28.7947 136.218 29.1847 136.678 29.4531C137.138 29.7173 137.673 29.8494 138.282 29.8494C138.679 29.8494 139.037 29.794 139.356 29.6832C139.68 29.5682 139.959 29.3977 140.194 29.1719C140.428 28.9418 140.609 28.6562 140.737 28.3153L142.194 28.7244C142.041 29.2188 141.783 29.6534 141.421 30.0284C141.059 30.3991 140.611 30.6889 140.078 30.8977C139.546 31.1023 138.947 31.2045 138.282 31.2045ZM144.642 31V21.1818H146.1V22.6648H146.202C146.381 22.179 146.705 21.7848 147.174 21.4822C147.642 21.1797 148.171 21.0284 148.759 21.0284C148.87 21.0284 149.008 21.0305 149.174 21.0348C149.341 21.0391 149.466 21.0455 149.551 21.054V22.5881C149.5 22.5753 149.383 22.5561 149.2 22.5305C149.021 22.5007 148.831 22.4858 148.631 22.4858C148.154 22.4858 147.728 22.5859 147.353 22.7862C146.982 22.9822 146.688 23.255 146.471 23.6044C146.257 23.9496 146.151 24.3437 146.151 24.7869V31H144.642ZM155.004 34.8864C154.275 34.8864 153.649 34.7926 153.125 34.6051C152.6 34.4219 152.164 34.179 151.814 33.8764C151.469 33.5781 151.194 33.2585 150.99 32.9176L152.191 32.0739C152.328 32.2528 152.5 32.4574 152.709 32.6875C152.918 32.9219 153.203 33.1243 153.566 33.2947C153.932 33.4695 154.412 33.5568 155.004 33.5568C155.797 33.5568 156.451 33.3651 156.966 32.9815C157.482 32.598 157.74 31.9972 157.74 31.179V29.1847H157.612C157.501 29.3636 157.343 29.5852 157.139 29.8494C156.939 30.1094 156.649 30.3416 156.27 30.5462C155.895 30.7464 155.387 30.8466 154.748 30.8466C153.956 30.8466 153.244 30.6591 152.613 30.2841C151.987 29.9091 151.49 29.3636 151.124 28.6477C150.762 27.9318 150.581 27.0625 150.581 26.0398C150.581 25.0341 150.757 24.1584 151.111 23.4126C151.465 22.6626 151.957 22.0831 152.588 21.674C153.218 21.2607 153.947 21.054 154.774 21.054C155.413 21.054 155.92 21.1605 156.295 21.3736C156.674 21.5824 156.964 21.821 157.164 22.0895C157.369 22.3537 157.527 22.571 157.637 22.7415H157.791V21.1818H159.248V31.2812C159.248 32.125 159.056 32.8111 158.673 33.3395C158.294 33.8722 157.782 34.2621 157.139 34.5092C156.5 34.7607 155.788 34.8864 155.004 34.8864ZM154.953 29.4915C155.558 29.4915 156.069 29.353 156.487 29.076C156.904 28.799 157.222 28.4006 157.439 27.8807C157.657 27.3608 157.765 26.7386 157.765 26.0142C157.765 25.3068 157.659 24.6825 157.446 24.1413C157.233 23.6001 156.917 23.1761 156.5 22.8693C156.082 22.5625 155.566 22.4091 154.953 22.4091C154.314 22.4091 153.781 22.571 153.355 22.8949C152.933 23.2187 152.615 23.6534 152.402 24.1989C152.194 24.7443 152.089 25.3494 152.089 26.0142C152.089 26.696 152.196 27.299 152.409 27.8232C152.626 28.343 152.946 28.7521 153.368 29.0504C153.794 29.3445 154.322 29.4915 154.953 29.4915ZM165.998 31.2045C165.112 31.2045 164.334 30.9936 163.665 30.5717C163 30.1499 162.48 29.5597 162.105 28.8011C161.735 28.0426 161.549 27.1562 161.549 26.142C161.549 25.1193 161.735 24.2266 162.105 23.4638C162.48 22.701 163 22.1087 163.665 21.6868C164.334 21.2649 165.112 21.054 165.998 21.054C166.885 21.054 167.66 21.2649 168.325 21.6868C168.994 22.1087 169.514 22.701 169.885 23.4638C170.26 24.2266 170.447 25.1193 170.447 26.142C170.447 27.1562 170.26 28.0426 169.885 28.8011C169.514 29.5597 168.994 30.1499 168.325 30.5717C167.66 30.9936 166.885 31.2045 165.998 31.2045ZM165.998 29.8494C166.672 29.8494 167.225 29.6768 167.66 29.3317C168.095 28.9865 168.417 28.5327 168.625 27.9702C168.834 27.4077 168.939 26.7983 168.939 26.142C168.939 25.4858 168.834 24.8743 168.625 24.3075C168.417 23.7408 168.095 23.2827 167.66 22.9332C167.225 22.5838 166.672 22.4091 165.998 22.4091C165.325 22.4091 164.771 22.5838 164.336 22.9332C163.902 23.2827 163.58 23.7408 163.371 24.3075C163.162 24.8743 163.058 25.4858 163.058 26.142C163.058 26.7983 163.162 27.4077 163.371 27.9702C163.58 28.5327 163.902 28.9865 164.336 29.3317C164.771 29.6768 165.325 29.8494 165.998 29.8494ZM172.75 31V21.1818H174.207V22.6648H174.309C174.488 22.179 174.812 21.7848 175.281 21.4822C175.75 21.1797 176.278 21.0284 176.866 21.0284C176.977 21.0284 177.116 21.0305 177.282 21.0348C177.448 21.0391 177.574 21.0455 177.659 21.054V22.5881C177.608 22.5753 177.491 22.5561 177.307 22.5305C177.128 22.5007 176.939 22.4858 176.738 22.4858C176.261 22.4858 175.835 22.5859 175.46 22.7862C175.089 22.9822 174.795 23.255 174.578 23.6044C174.365 23.9496 174.258 24.3437 174.258 24.7869V31H172.75ZM180.718 34.6818C180.462 34.6818 180.234 34.6605 180.034 34.6179C179.833 34.5795 179.695 34.5412 179.618 34.5028L180.002 33.1733C180.368 33.267 180.692 33.3011 180.973 33.2756C181.254 33.25 181.504 33.1243 181.721 32.8984C181.943 32.6768 182.145 32.3168 182.328 31.8182L182.61 31.0511L178.979 21.1818H180.615L183.325 29.0057H183.428L186.138 21.1818H187.774L183.607 32.4318C183.419 32.9389 183.187 33.3587 182.91 33.6911C182.633 34.0277 182.311 34.277 181.945 34.4389C181.583 34.6009 181.173 34.6818 180.718 34.6818Z" fill="black"/>
</svg>
