<svg width="185" height="48" viewBox="0 0 185 48" fill="none" xmlns="http://www.w3.org/2000/svg">
<path d="M0.5 0.5H92.5H138.75H161.662L184.306 24L161.662 47.5H138.75H92.5H0.5V0.5Z" fill="#D9D9D9" stroke="black"/>
<path d="M20.1222 31H18.4602L23.267 17.9091H24.9034L29.7102 31H28.0483L24.1364 19.9801H24.0341L20.1222 31ZM20.7358 25.8864H27.4347V27.2926H20.7358V25.8864ZM35.2521 31.2045C34.4339 31.2045 33.7116 30.9979 33.0852 30.5845C32.4588 30.1669 31.9688 29.5788 31.6151 28.8203C31.2614 28.0575 31.0845 27.1562 31.0845 26.1165C31.0845 25.0852 31.2614 24.1903 31.6151 23.4318C31.9688 22.6733 32.4609 22.0874 33.0916 21.674C33.7223 21.2607 34.451 21.054 35.2777 21.054C35.9169 21.054 36.4219 21.1605 36.7926 21.3736C37.1676 21.5824 37.4531 21.821 37.6491 22.0895C37.8494 22.3537 38.005 22.571 38.1158 22.7415H38.2436V17.9091H39.7521V31H38.2947V29.4915H38.1158C38.005 29.6705 37.8473 29.8963 37.6428 30.169C37.4382 30.4375 37.1463 30.6783 36.767 30.8913C36.3878 31.1001 35.8828 31.2045 35.2521 31.2045ZM35.4567 29.8494C36.0618 29.8494 36.5732 29.6918 36.9908 29.3764C37.4084 29.0568 37.7259 28.6158 37.9432 28.0533C38.1605 27.4865 38.2692 26.8324 38.2692 26.0909C38.2692 25.358 38.1626 24.7166 37.9496 24.1669C37.7365 23.6129 37.4212 23.1825 37.0036 22.8757C36.5859 22.5646 36.0703 22.4091 35.4567 22.4091C34.8175 22.4091 34.2848 22.5732 33.8587 22.9013C33.4368 23.2251 33.1193 23.6662 32.9062 24.2244C32.6974 24.7784 32.593 25.4006 32.593 26.0909C32.593 26.7898 32.6996 27.4247 32.9126 27.9957C33.13 28.5625 33.4496 29.0142 33.8714 29.3509C34.2976 29.6832 34.826 29.8494 35.4567 29.8494ZM46.4318 31.2045C45.6136 31.2045 44.8913 30.9979 44.2649 30.5845C43.6385 30.1669 43.1484 29.5788 42.7947 28.8203C42.4411 28.0575 42.2642 27.1562 42.2642 26.1165C42.2642 25.0852 42.4411 24.1903 42.7947 23.4318C43.1484 22.6733 43.6406 22.0874 44.2713 21.674C44.902 21.2607 45.6307 21.054 46.4574 21.054C47.0966 21.054 47.6016 21.1605 47.9723 21.3736C48.3473 21.5824 48.6328 21.821 48.8288 22.0895C49.0291 22.3537 49.1847 22.571 49.2955 22.7415H49.4233V17.9091H50.9318V31H49.4744V29.4915H49.2955C49.1847 29.6705 49.027 29.8963 48.8224 30.169C48.6179 30.4375 48.326 30.6783 47.9467 30.8913C47.5675 31.1001 47.0625 31.2045 46.4318 31.2045ZM46.6364 29.8494C47.2415 29.8494 47.7528 29.6918 48.1705 29.3764C48.5881 29.0568 48.9055 28.6158 49.1229 28.0533C49.3402 27.4865 49.4489 26.8324 49.4489 26.0909C49.4489 25.358 49.3423 24.7166 49.1293 24.1669C48.9162 23.6129 48.6009 23.1825 48.1832 22.8757C47.7656 22.5646 47.25 22.4091 46.6364 22.4091C45.9972 22.4091 45.4645 22.5732 45.0384 22.9013C44.6165 23.2251 44.299 23.6662 44.0859 24.2244C43.8771 24.7784 43.7727 25.4006 43.7727 26.0909C43.7727 26.7898 43.8793 27.4247 44.0923 27.9957C44.3097 28.5625 44.6293 29.0142 45.0511 29.3509C45.4773 29.6832 46.0057 29.8494 46.6364 29.8494ZM60.4751 25.0938V31H58.9666V21.1818H60.424V22.7159H60.5518C60.782 22.2173 61.1314 21.8168 61.6001 21.5142C62.0689 21.2074 62.674 21.054 63.4155 21.054C64.0803 21.054 64.6619 21.1903 65.1605 21.4631C65.6591 21.7315 66.0469 22.1406 66.3239 22.6903C66.6009 23.2358 66.7393 23.9261 66.7393 24.7614V31H65.2308V24.8636C65.2308 24.0923 65.0305 23.4915 64.63 23.0611C64.2294 22.6264 63.6797 22.4091 62.9808 22.4091C62.4993 22.4091 62.0689 22.5135 61.6896 22.7223C61.3146 22.9311 61.0185 23.2358 60.8011 23.6364C60.5838 24.0369 60.4751 24.5227 60.4751 25.0938ZM73.6124 31.2045C72.6664 31.2045 71.8503 30.9957 71.1642 30.5781C70.4824 30.1562 69.9561 29.5682 69.5854 28.8139C69.2189 28.0554 69.0357 27.1733 69.0357 26.1676C69.0357 25.1619 69.2189 24.2756 69.5854 23.5085C69.9561 22.7372 70.4718 22.1364 71.1323 21.706C71.7971 21.2713 72.5726 21.054 73.459 21.054C73.9703 21.054 74.4753 21.1392 74.9739 21.3097C75.4725 21.4801 75.9263 21.7571 76.3354 22.1406C76.7445 22.5199 77.0705 23.0227 77.3134 23.6491C77.5563 24.2756 77.6777 25.0469 77.6777 25.9631V26.6023H70.1096V25.2983H76.1436C76.1436 24.7443 76.0328 24.25 75.8113 23.8153C75.5939 23.3807 75.2828 23.0376 74.878 22.7862C74.4775 22.5348 74.0044 22.4091 73.459 22.4091C72.8581 22.4091 72.3382 22.5582 71.8993 22.8565C71.4647 23.1506 71.1301 23.5341 70.8958 24.0071C70.6614 24.4801 70.5442 24.9872 70.5442 25.5284V26.3977C70.5442 27.1392 70.6721 27.7678 70.9277 28.2834C71.1877 28.7947 71.5478 29.1847 72.008 29.4531C72.4682 29.7173 73.003 29.8494 73.6124 29.8494C74.0087 29.8494 74.3667 29.794 74.6863 29.6832C75.0101 29.5682 75.2892 29.3977 75.5236 29.1719C75.758 28.9418 75.9391 28.6562 76.0669 28.3153L77.5243 28.7244C77.3709 29.2188 77.1131 29.6534 76.7509 30.0284C76.3887 30.3991 75.9412 30.6889 75.4086 30.8977C74.8759 31.1023 74.2772 31.2045 73.6124 31.2045ZM82.1969 31L79.2054 21.1818H80.7907L82.9128 28.6989H83.0151L85.1117 21.1818H86.7225L88.7935 28.6733H88.8958L91.0179 21.1818H92.6032L89.6117 31H88.1287L85.981 23.4574H85.8276L83.6799 31H82.1969ZM103.623 34.8864C102.894 34.8864 102.268 34.7926 101.744 34.6051C101.22 34.4219 100.783 34.179 100.433 33.8764C100.088 33.5781 99.8134 33.2585 99.6088 32.9176L100.811 32.0739C100.947 32.2528 101.119 32.4574 101.328 32.6875C101.537 32.9219 101.823 33.1243 102.185 33.2947C102.551 33.4695 103.031 33.5568 103.623 33.5568C104.416 33.5568 105.07 33.3651 105.585 32.9815C106.101 32.598 106.359 31.9972 106.359 31.179V29.1847H106.231C106.12 29.3636 105.963 29.5852 105.758 29.8494C105.558 30.1094 105.268 30.3416 104.889 30.5462C104.514 30.7464 104.007 30.8466 103.367 30.8466C102.575 30.8466 101.863 30.6591 101.232 30.2841C100.606 29.9091 100.11 29.3636 99.7431 28.6477C99.3809 27.9318 99.1998 27.0625 99.1998 26.0398C99.1998 25.0341 99.3766 24.1584 99.7303 23.4126C100.084 22.6626 100.576 22.0831 101.207 21.674C101.838 21.2607 102.566 21.054 103.393 21.054C104.032 21.054 104.539 21.1605 104.914 21.3736C105.294 21.5824 105.583 21.821 105.784 22.0895C105.988 22.3537 106.146 22.571 106.257 22.7415H106.41V21.1818H107.867V31.2812C107.867 32.125 107.676 32.8111 107.292 33.3395C106.913 33.8722 106.401 34.2621 105.758 34.5092C105.119 34.7607 104.407 34.8864 103.623 34.8864ZM103.572 29.4915C104.177 29.4915 104.688 29.353 105.106 29.076C105.524 28.799 105.841 28.4006 106.058 27.8807C106.276 27.3608 106.384 26.7386 106.384 26.0142C106.384 25.3068 106.278 24.6825 106.065 24.1413C105.852 23.6001 105.536 23.1761 105.119 22.8693C104.701 22.5625 104.186 22.4091 103.572 22.4091C102.933 22.4091 102.4 22.571 101.974 22.8949C101.552 23.2187 101.235 23.6534 101.021 24.1989C100.813 24.7443 100.708 25.3494 100.708 26.0142C100.708 26.696 100.815 27.299 101.028 27.8232C101.245 28.343 101.565 28.7521 101.987 29.0504C102.413 29.3445 102.941 29.4915 103.572 29.4915ZM114.617 31.2045C113.731 31.2045 112.953 30.9936 112.284 30.5717C111.619 30.1499 111.1 29.5597 110.725 28.8011C110.354 28.0426 110.169 27.1562 110.169 26.142C110.169 25.1193 110.354 24.2266 110.725 23.4638C111.1 22.701 111.619 22.1087 112.284 21.6868C112.953 21.2649 113.731 21.054 114.617 21.054C115.504 21.054 116.279 21.2649 116.944 21.6868C117.613 22.1087 118.133 22.701 118.504 23.4638C118.879 24.2266 119.066 25.1193 119.066 26.142C119.066 27.1562 118.879 28.0426 118.504 28.8011C118.133 29.5597 117.613 30.1499 116.944 30.5717C116.279 30.9936 115.504 31.2045 114.617 31.2045ZM114.617 29.8494C115.291 29.8494 115.845 29.6768 116.279 29.3317C116.714 28.9865 117.036 28.5327 117.244 27.9702C117.453 27.4077 117.558 26.7983 117.558 26.142C117.558 25.4858 117.453 24.8743 117.244 24.3075C117.036 23.7408 116.714 23.2827 116.279 22.9332C115.845 22.5838 115.291 22.4091 114.617 22.4091C113.944 22.4091 113.39 22.5838 112.955 22.9332C112.521 23.2827 112.199 23.7408 111.99 24.3075C111.781 24.8743 111.677 25.4858 111.677 26.142C111.677 26.7983 111.781 27.4077 111.99 27.9702C112.199 28.5327 112.521 28.9865 112.955 29.3317C113.39 29.6768 113.944 29.8494 114.617 29.8494ZM124.258 31.2301C123.636 31.2301 123.071 31.1129 122.564 30.8786C122.057 30.6399 121.654 30.2969 121.356 29.8494C121.058 29.3977 120.909 28.8523 120.909 28.2131C120.909 27.6506 121.02 27.1946 121.241 26.8452C121.463 26.4915 121.759 26.2145 122.13 26.0142C122.5 25.8139 122.909 25.6648 123.357 25.5668C123.809 25.4645 124.262 25.3835 124.718 25.3239C125.315 25.2472 125.799 25.1896 126.169 25.1513C126.544 25.1087 126.817 25.0384 126.988 24.9403C127.162 24.8423 127.25 24.6719 127.25 24.429V24.3778C127.25 23.7472 127.077 23.2571 126.732 22.9077C126.391 22.5582 125.873 22.3835 125.179 22.3835C124.458 22.3835 123.894 22.5412 123.485 22.8565C123.076 23.1719 122.788 23.5085 122.622 23.8665L121.19 23.3551C121.446 22.7585 121.787 22.294 122.213 21.9616C122.643 21.625 123.112 21.3906 123.619 21.2585C124.13 21.1222 124.633 21.054 125.127 21.054C125.443 21.054 125.805 21.0923 126.214 21.169C126.627 21.2415 127.026 21.3928 127.409 21.6229C127.797 21.853 128.119 22.2003 128.375 22.6648C128.63 23.1293 128.758 23.7514 128.758 24.5312V31H127.25V29.6705H127.173C127.071 29.8835 126.9 30.1115 126.662 30.3544C126.423 30.5973 126.105 30.804 125.709 30.9744C125.313 31.1449 124.829 31.2301 124.258 31.2301ZM124.488 29.875C125.085 29.875 125.588 29.7578 125.997 29.5234C126.41 29.2891 126.721 28.9865 126.93 28.6158C127.143 28.245 127.25 27.8551 127.25 27.446V26.0653C127.186 26.142 127.045 26.2124 126.828 26.2763C126.615 26.3359 126.368 26.3892 126.086 26.4361C125.809 26.4787 125.539 26.517 125.275 26.5511C125.015 26.581 124.804 26.6065 124.642 26.6278C124.25 26.679 123.883 26.7621 123.542 26.8771C123.206 26.9879 122.933 27.1562 122.724 27.3821C122.52 27.6037 122.417 27.9062 122.417 28.2898C122.417 28.8139 122.611 29.2102 122.999 29.4787C123.391 29.7429 123.887 29.875 124.488 29.875ZM133.02 17.9091V31H131.512V17.9091H133.02Z" fill="black"/>
</svg>
